<svg xmlns="http://www.w3.org/2000/svg" width="78" height="78" viewBox="0 0 78 78">
  <g id="Group_95" data-name="Group 95" transform="translate(-149 -27)">
    <circle id="Ellipse_30" data-name="Ellipse 30" cx="39" cy="39" r="39" transform="translate(149 27)" fill="#fff"/>
    <g id="pet_1_" data-name="pet (1)" transform="translate(128.545 -23.575)">
      <g id="Group_90" data-name="Group 90" transform="translate(36.853 63.575)">
        <path id="Path_269" data-name="Path 269" d="M160.172,190.582a1.055,1.055,0,0,0,.564-.729c.354-6.063-4.652-14.146-6.455-16.844a11.272,11.272,0,0,0-4.168,2.939s-2.6,1.747-3.528,10.238C151.455,192.493,157.507,191.461,160.172,190.582Z" transform="translate(-136.773 -172.222)" fill="#fd5d40"/>
        <path id="Path_270" data-name="Path 270" d="M140.9,176.725l-7.979-1.947a3.557,3.557,0,0,0-2.49-2.716c-1.649-.578-7.331-3.844-12.922-2.69,2.114,3.217,6.816,11.148,6.444,17.491a2.793,2.793,0,0,1-1.8,2.343,14.748,14.748,0,0,1-4.559.727,13.229,13.229,0,0,1-9.809-4.314c-.064,1.088-.1,2.265-.107,3.538-.037,6.567-8.379,12.794-8.379,12.794l-1.111,2.3a30.143,30.143,0,0,0,10.236,12.153,19.481,19.481,0,0,1,1.9-7.44,16.107,16.107,0,0,1,5.38-6.277c.266-7.239,2.615-9.354,4.575-9.838a2.06,2.06,0,0,1,1.736.354,2.506,2.506,0,0,1,.971,1.876,6.032,6.032,0,0,0,1.8,3.854,17.684,17.684,0,0,1,2.523.415l.073-.683.607-5.9a2.359,2.359,0,0,1,1.988-1.976c3.76-.548,12.139-2.775,12.683-11.827A2.343,2.343,0,0,0,140.9,176.725Zm-12.431,2.1a1.019,1.019,0,1,1,1.019-1.019A1.019,1.019,0,0,1,128.466,178.828Z" transform="translate(-98.183 -169.127)" fill="#fd5d40"/>
        <path id="Path_271" data-name="Path 271" d="M179.411,306.337c-.3-2.566-3.924-4.681-8.6-4.981a7.523,7.523,0,0,1-2.652-5.209c-.027-.5-.4-1-.885-.876-1.251.308-3.374,1.913-3.48,9.247,0,0-6.8,3.432-7.294,13.326a29.74,29.74,0,0,0,14.866,4.246l-.061-1.417a1.327,1.327,0,0,1,.807-1.222l5.794-2.173s2.717.152,3.848-1.888a13.9,13.9,0,0,1,1.495-2.21.924.924,0,0,0-.043-1.273C182.016,310.764,179.636,308.254,179.411,306.337Zm-3.437,2.484a1.019,1.019,0,1,1,1.02-1.018A1.017,1.017,0,0,1,175.973,308.821Z" transform="translate(-144.673 -269.685)" fill="#fd5d40"/>
      </g>
    </g>
  </g>
</svg>
